Coordinates
version=1
nRows=5
nColumns=46
inDegrees=yes

Units are S.I. units (second, meters, Newtons, ...)
Angles are in degrees.

endheader
time	pelvis_tilt	pelvis_list	pelvis_rotation	pelvis_tx	pelvis_ty	pelvis_tz	bb_angle	bb_tx	bb_ty	bb_tz	hip_flexion_r	hip_adduction_r	hip_rotation_r	knee_angle_r	knee_angle_r_beta	ankle_angle_r	subtalar_angle_r	mtp_angle_r	crank_angle_r	hip_flexion_l	hip_adduction_l	hip_rotation_l	knee_angle_l	knee_angle_l_beta	ankle_angle_l	subtalar_angle_l	mtp_angle_l	crank_angle_l	lumbar_extension	lumbar_bending	lumbar_rotation	arm_flex_r	arm_add_r	arm_rot_r	elbow_flex_r	pro_sup_r	wrist_flex_r	wrist_dev_r	arm_flex_l	arm_add_l	arm_rot_l	elbow_flex_l	pro_sup_l	wrist_flex_l	wrist_dev_l
      2.50000000	    -19.44093926	      4.31118860	      4.34266540	      0.09278556	      1.15039891	     -0.20838220	      0.00000000	      0.50000000	      0.00000000	      0.25000000	     67.90038981	     -9.75807527	      1.13346829	     80.53501428	      1.40560116	    -13.67165287	    -13.04060010	      0.00000000	      0.00000000	     77.94071626	     -3.83746581	     -3.32179388	     70.17440373	      1.22477440	     26.63766320	      5.02677144	      0.00000000	      0.00000000	    -56.11351344	     -8.93252864	     -2.66112831	     89.37908410	    -32.08524543	     39.38646724	     55.26478882	     35.57644657	      0.00000000	      0.00000000	     89.78651660	     -2.81412658	     31.93915296	     54.88660456	     23.50933643	      0.00000000	      0.00000000
      2.50500000	    -19.57498968	      4.13753305	      4.11119768	      0.09371830	      1.14995770	     -0.20874170	      0.00000000	      0.50000000	      0.00000000	      0.25000000	     68.47691920	     -9.70144011	      1.00119816	     81.58554610	      1.42393640	    -12.99721434	    -12.69174853	      0.00000000	      0.00000000	     77.41134946	     -3.87970687	     -3.08082217	     69.03242521	      1.20484311	     26.35279516	      4.97223746	      0.00000000	      0.00000000	    -55.92409276	     -8.94939163	     -2.39482853	     89.36447942	    -32.07522612	     39.16650053	     55.10644894	     35.90531023	      0.00000000	      0.00000000	     89.78328812	     -3.10007708	     32.30771584	     54.72359710	     24.58096172	      0.00000000	      0.00000000
      2.51000000	    -19.56914628	      3.97808642	      3.90481146	      0.09471628	      1.14990226	     -0.20870276	      0.00000000	      0.50000000	      0.00000000	      0.25000000	     68.84601038	     -9.57517475	      0.89146744	     82.61104591	      1.44183475	    -12.29085208	    -12.66182559	      0.00000000	      0.00000000	     76.67689316	     -3.94962043	     -2.88359813	     67.83178110	      1.18388792	     26.05989809	      4.98622510	      0.00000000	      0.00000000	    -55.90979138	     -8.93772317	     -1.92691372	     89.26598295	    -32.06295731	     38.06129646	     55.05317768	     37.31017113	      0.00000000	      0.00000000	     89.78595791	     -3.12482023	     32.49638337	     53.82093350	     28.61636844	      0.00000000	      0.00000000
      2.51500000	    -19.82110807	      3.84729420	      3.65330888	      0.09559210	      1.14937869	     -0.20956002	      0.00000000	      0.50000000	      0.00000000	      0.25000000	     69.51769632	     -9.56100332	      0.81157711	     83.63082430	      1.45963324	    -11.52125330	    -12.06392805	      0.00000000	      0.00000000	     76.22007430	     -3.92587181	     -2.68302242	     66.65504825	      1.16335005	     25.60958264	      4.67480082	      0.00000000	      0.00000000	    -55.59650058	     -8.95975404	     -1.92222673	     89.36274904	    -32.17833131	     39.31111328	     54.86397134	     37.33265930	      0.00000000	      0.00000000	     89.77404294	     -3.64587280	     32.70366558	     54.24644788	     28.37575717	      0.00000000	      0.00000000
      2.52000000	    -19.88817526	      3.71187878	      3.45901701	      0.09655094	      1.14926255	     -0.21016905	      0.00000000	      0.50000000	      0.00000000	      0.25000000	     69.98071292	     -9.54800343	      0.71205280	     84.64250984	      1.47729048	    -10.50192834	    -11.82676587	      0.00000000	      0.00000000	     75.54230786	     -3.90807285	     -2.52508012	     65.45911888	      1.14247715	     25.09370626	      4.44332935	      0.00000000	      0.00000000	    -55.52327228	     -8.92265771	     -1.55868057	     89.34624752	    -32.76809982	     39.93055085	     55.92050151	     34.84447118	      0.00000000	      0.00000000	     89.76930777	     -3.80312800	     33.37027652	     55.69457319	     21.65110516	      0.00000000	      0.00000000
